<?xml version="1.0" encoding="UTF-8"?>
<svg width="256" height="256" viewBox="0 0 256 256" fill="none" xmlns="http://www.w3.org/2000/svg">
  <defs>
    <radialGradient id="rose" cx="0.5" cy="0.4" r="0.7">
      <stop offset="0" stop-color="#FFEBC0"/>
      <stop offset="0.55" stop-color="#F2C35C"/>
      <stop offset="1" stop-color="#C8891B"/>
    </radialGradient>
    <linearGradient id="stem" x1="0" y1="0" x2="0" y2="1">
      <stop offset="0" stop-color="#C8891B"/>
      <stop offset="1" stop-color="#8B5A0A"/>
    </linearGradient>
  </defs>
  <g transform="translate(128 128)">
    <circle r="46" fill="url(#rose)" opacity="0.95"/>
    <path d="M-12 -22 C -28 -10 -26 8 -8 18 C -2 22 4 26 10 30 C 24 40 36 36 40 24 C 44 12 38 -2 22 -10 C 10 -16 0 -20 -12 -22Z" fill="url(#rose)"/>
    <path d="M6 -38 C -18 -42 -36 -26 -30 -6 C -26 8 -10 14 6 8 C 22 2 30 -14 22 -28 C 18 -34 12 -36 6 -38Z" fill="url(#rose)"/>
    <path d="M-36 6 C -52 10 -56 30 -40 44 C -28 54 -10 50 -4 34 C 2 18 -8 6 -22 4 C -28 4 -32 4 -36 6Z" fill="url(#rose)"/>
    <path d="M20 38 C 6 54 -14 58 -24 42 C -32 30 -24 14 -8 14 C 6 14 22 20 26 30 C 28 34 26 36 20 38Z" fill="url(#rose)"/>
    <path d="M0 10 C -8 -6 4 -18 18 -16 C 32 -14 38 0 30 10 C 22 20 6 22 0 10Z" fill="#FFD47A" opacity="0.9"/>
    <path d="M0 48 C 0 76 -6 102 -16 120" stroke="url(#stem)" stroke-width="8" stroke-linecap="round"/>
    <path d="M-6 86 C -24 86 -34 78 -40 68" stroke="url(#stem)" stroke-width="6" stroke-linecap="round"/>
  </g>
</svg>
